<?xml version="1.0" encoding="UTF-8"?>
<svg id="Layer_3" data-name="Layer 3" xmlns="http://www.w3.org/2000/svg" viewBox="0 0 1907.47 1352.6">
  <g id="Layer_1" data-name="Layer 1">
    <path d="M1620.16,389.04h-373.01l-60.49,100.81h237.21v311.81l100.81,60.49v-372.3h95.47c102.83,0,186.5,83.57,186.5,186.5s-83.67,186.5-186.5,186.5h-95.47v-.71h-100.81v.71h-176.73l-60.49,100.81h237.21v81.15c0,114.12-92.85,206.97-206.97,206.97s-206.97-92.85-206.97-206.97v-318.06h176.72l60.49-100.81h-237.21v-318.16c0-114.12,92.85-206.97,206.97-206.97s206.97,92.85,206.97,206.97v20.77l100.81,60.49v-81.26C1524.69,137.81,1386.88,0,1216.91,0c-107.66,0-202.43,55.25-257.37,139.02C904.59,55.25,809.83,0,702.16,0c-170.07,0-307.78,137.81-307.78,307.78v20.77l100.81,60.49v-81.26c0-114.12,92.85-206.97,206.97-206.97s206.97,92.85,206.97,206.97v318.16h-176.73l-60.49,100.81h237.21v318.06c0,114.12-92.85,206.97-206.97,206.97s-206.97-92.85-206.97-206.97v-81.15h165.13l60.49-100.81h-225.62v-.71h-100.81v.71h-107.06c-102.83,0-186.5-83.67-186.5-186.5s83.68-186.5,186.5-186.5h107.06v311.81l100.81,60.49v-372.3h165.13l60.49-100.81h-433.49C128.84,389.04,0,517.87,0,676.35s128.84,287.32,287.32,287.32h107.06v81.15c0,169.97,137.71,307.78,307.78,307.78,84.99,0,161.91-34.48,217.66-90.13,14.82-14.82,28.13-31.25,39.72-48.89,54.94,83.77,149.71,139.02,257.37,139.02,169.97,0,307.78-137.81,307.78-307.78v-81.15h95.47c158.38,0,287.32-128.94,287.32-287.32s-128.94-287.32-287.32-287.32Z"/>
  </g>
</svg>