<?xml version="1.0" encoding="UTF-8"?>
<svg id="Layer_2" data-name="Layer 2" xmlns="http://www.w3.org/2000/svg" viewBox="0 0 1945.59 446.08">
  <g id="Layer_1" data-name="Layer 1">
    <g>
      <path d="M531.36,127.59h-122.33l-19.84,33.06h77.8v102.26l33.06,19.84v-122.1h31.31c33.73,0,61.17,27.41,61.17,61.17s-27.44,61.17-61.17,61.17h-31.31v-.23h-33.06v.23h-57.96l-19.84,33.06h77.8v26.62c0,37.43-30.45,67.88-67.88,67.88s-67.88-30.45-67.88-67.88v-104.31h57.96l19.84-33.06h-77.8v-104.35c0-37.43,30.45-67.88,67.88-67.88s67.88,30.45,67.88,67.88v6.81l33.06,19.84v-26.65c0-55.74-45.2-100.94-100.94-100.94-35.31,0-66.39,18.12-84.41,45.59C296.68,18.12,265.6,0,230.28,0c-55.78,0-100.94,45.2-100.94,100.94v6.81l33.06,19.84v-26.65c0-37.43,30.45-67.88,67.88-67.88s67.88,30.45,67.88,67.88v104.35h-57.96l-19.84,33.06h77.8v104.31c0,37.43-30.45,67.88-67.88,67.88s-67.88-30.45-67.88-67.88v-26.62h54.16l19.84-33.06h-73.99v-.23h-33.06v.23h-35.11c-33.72,0-61.17-27.44-61.17-61.17s27.44-61.17,61.17-61.17h35.11v102.26l33.06,19.84v-122.1h54.16l19.84-33.06H94.23C42.26,127.59,0,169.85,0,221.82s42.26,94.23,94.23,94.23h35.11v26.62c0,55.74,45.16,100.94,100.94,100.94,27.87,0,53.1-11.31,71.38-29.56,4.86-4.86,9.22-10.25,13.03-16.04,18.02,27.48,49.1,45.59,84.41,45.59,55.75,0,100.94-45.2,100.94-100.94v-26.62h31.31c51.94,0,94.23-42.29,94.23-94.23s-42.29-94.23-94.23-94.23Z"/>
      <g>
        <path d="M783.34,88.72h178.19v29.57h-145.65v82.81h138.26v29.57h-138.26v124.21h-32.53V88.72Z"/>
        <path d="M974.1,162.66h29.57v32.16c7.15-12.81,15.9-21.75,26.25-26.8,10.35-5.05,22.05-7.58,35.12-7.58h14.42v29.94h-15.16c-11.59,0-21.75,1.91-30.5,5.73-8.75,3.82-15.71,10.29-20.89,19.41-5.17,9.12-7.76,21.32-7.76,36.6v102.77h-31.05v-192.23Z"/>
        <path d="M1129.17,346.39c-14.17-8.63-25.02-20.58-32.53-35.86-7.52-15.28-11.28-32.53-11.28-51.75s3.76-36.47,11.28-51.76c7.51-15.28,18.36-27.23,32.53-35.86,14.17-8.62,30.62-12.94,49.35-12.94s35.18,4.32,49.35,12.94c14.17,8.63,25.01,20.58,32.53,35.86,7.51,15.28,11.28,32.53,11.28,51.76s-3.76,36.47-11.28,51.75c-7.52,15.28-18.36,27.23-32.53,35.86-14.17,8.62-30.62,12.94-49.35,12.94s-35.18-4.31-49.35-12.94ZM1211.98,321.98c8.99-6.16,15.77-14.66,20.33-25.51,4.56-10.84,6.84-23.41,6.84-37.71s-2.28-26.86-6.84-37.71c-4.56-10.84-11.34-19.34-20.33-25.51-9-6.16-20.15-9.24-33.46-9.24s-24.46,3.08-33.45,9.24c-9,6.16-15.77,14.67-20.33,25.51-4.56,10.85-6.84,23.42-6.84,37.71s2.27,26.87,6.84,37.71c4.56,10.85,11.33,19.35,20.33,25.51,8.99,6.16,20.15,9.24,33.45,9.24s24.46-3.08,33.46-9.24Z"/>
        <path d="M1290.16,162.66h29.57v27.73c6.9-9.85,15.53-17.68,25.88-23.47,10.35-5.79,22.3-8.69,35.86-8.69,15.52,0,28.4,3.33,38.63,9.98,10.23,6.65,17.75,15.34,22.55,26.06,4.8,10.72,7.21,22.12,7.21,34.19v126.43h-30.68v-123.47c0-13.8-3.7-24.77-11.09-32.9-7.39-8.13-18.24-12.2-32.53-12.2-6.65,0-14.11,1.48-22.37,4.44-8.26,2.96-15.66,9-22.18,18.11-6.53,9.12-9.8,21.94-9.8,38.45v107.58h-31.05v-192.23Z"/>
        <path d="M1515.1,350.26c-6.53-3.08-11.27-7.82-14.23-14.23-2.96-6.41-4.44-14.66-4.44-24.77v-121.25h-35.49v-27.36h35.49v-59.15h31.06v59.15h51.75v27.36h-51.75v117.56c0,6.9,1.6,11.96,4.8,15.16,3.2,3.2,8.25,4.8,15.16,4.8h31.79v27.36h-37.71c-11.09,0-19.9-1.54-26.43-4.62Z"/>
        <path d="M1593.29,88.72h31.05v37.71h-31.05v-37.71ZM1593.29,162.66h31.05v192.23h-31.05v-192.23Z"/>
        <path d="M1684.78,346.39c-13.68-8.63-24.21-20.58-31.61-35.86-7.39-15.28-11.09-32.53-11.09-51.75s3.7-36.47,11.09-51.76c7.4-15.28,17.93-27.23,31.61-35.86,13.68-8.62,29.39-12.94,47.14-12.94s33.45,4.32,47.13,12.94c13.68,8.63,24.21,20.58,31.61,35.86,7.39,15.28,11.09,32.53,11.09,51.76v11.09h-146.76c1.23,12.32,4.19,23.05,8.87,32.16,4.68,9.12,11.09,16.27,19.22,21.44,8.13,5.17,17.74,7.76,28.84,7.76,12.57,0,23.53-3.08,32.9-9.24,9.36-6.16,16.27-14.66,20.7-25.51h32.16c-6.16,19.22-16.82,34.51-31.98,45.84-15.16,11.34-33.09,17.01-53.79,17.01-17.75,0-33.46-4.31-47.14-12.94ZM1769.99,201.29c-9.61-9.98-22.31-14.97-38.08-14.97s-28.47,4.99-38.08,14.97c-9.61,9.98-15.65,23.47-18.11,40.48h112.38c-2.47-17.01-8.5-30.5-18.11-40.48Z"/>
        <path d="M1840.23,162.66h29.57v32.16c7.15-12.81,15.9-21.75,26.25-26.8,10.35-5.05,22.05-7.58,35.12-7.58h14.42v29.94h-15.16c-11.59,0-21.75,1.91-30.5,5.73-8.75,3.82-15.71,10.29-20.89,19.41-5.17,9.12-7.76,21.32-7.76,36.6v102.77h-31.05v-192.23Z"/>
      </g>
      <g>
        <path d="M783.34,382.63h23.49c6.76,0,11.89,1.53,15.39,4.59,3.5,3.06,5.24,7.05,5.24,11.96,0,3.01-.69,5.66-2.08,7.98-1.39,2.31-3.5,4.1-6.33,5.37,3.64,1.16,6.39,3.03,8.24,5.63,1.85,2.6,2.77,5.75,2.77,9.45,0,5.26-1.79,9.48-5.37,12.66-3.59,3.18-8.79,4.77-15.6,4.77h-25.74v-62.41ZM817.97,407.29c2.4-1.99,3.6-4.69,3.6-8.1s-1.2-6.11-3.6-8.1c-2.4-1.99-6.02-2.99-10.88-2.99h-17.77v22.19h17.77c4.86,0,8.48-1,10.88-2.99ZM820.27,436.47c2.48-2.08,3.73-5.03,3.73-8.84s-1.25-6.68-3.73-8.76c-2.49-2.08-6.15-3.12-11.01-3.12h-19.94v23.84h19.94c4.86,0,8.52-1.04,11.01-3.12Z"/>
        <path d="M833.88,382.63h5.98v62.41h-5.98v-62.41Z"/>
        <path d="M858.06,441.75c-4.39-2.89-7.7-6.79-9.93-11.7-2.22-4.91-3.34-10.32-3.34-16.21s1.11-11.3,3.34-16.21c2.23-4.91,5.53-8.81,9.93-11.7,4.39-2.89,9.71-4.33,15.95-4.33s11.65,1.45,16.04,4.33c4.39,2.89,7.69,6.79,9.88,11.7,2.2,4.91,3.29,10.32,3.29,16.21s-1.1,11.3-3.29,16.21c-2.2,4.91-5.49,8.81-9.88,11.7-4.39,2.89-9.74,4.33-16.04,4.33s-11.56-1.44-15.95-4.33ZM886.8,436.9c3.44-2.37,5.99-5.56,7.67-9.58,1.68-4.02,2.52-8.51,2.52-13.48s-.84-9.46-2.52-13.48c-1.68-4.01-4.23-7.21-7.67-9.58-3.44-2.37-7.7-3.55-12.79-3.55s-9.26,1.19-12.7,3.55c-3.44,2.37-6,5.56-7.67,9.58-1.68,4.02-2.51,8.51-2.51,13.48s.84,9.46,2.51,13.48c1.68,4.02,4.23,7.21,7.67,9.58,3.44,2.37,7.7,3.55,12.78,3.55s9.26-1.18,12.7-3.55Z"/>
        <path d="M908.25,382.63h7.8l23.15,55.56,23.23-55.56h7.8v62.41h-5.89v-51.92l-22.28,51.92h-5.72l-22.19-51.92v51.92h-5.89v-62.41Z"/>
        <path d="M977.68,382.63h42.47v5.46h-36.49v21.67h33.89v5.46h-33.89v24.36h36.49v5.46h-42.47v-62.41Z"/>
        <path d="M1024.49,382.63h19.5c6.7,0,12.35,1.37,16.95,4.12,4.59,2.75,8.03,6.47,10.31,11.18,2.28,4.71,3.42,10.01,3.42,15.91s-1.14,11.2-3.42,15.9c-2.28,4.71-5.72,8.44-10.31,11.18-4.59,2.74-10.24,4.12-16.95,4.12h-19.5v-62.41ZM1057.69,436.2c3.64-2.25,6.34-5.3,8.1-9.14,1.76-3.84,2.64-8.25,2.64-13.22s-.88-9.38-2.64-13.22c-1.76-3.84-4.46-6.89-8.1-9.15-3.64-2.25-8.21-3.38-13.7-3.38h-13.52v51.49h13.52c5.49,0,10.05-1.13,13.7-3.38Z"/>
      </g>
    </g>
  </g>
</svg>